<svg id="Layer_1" height="512" viewBox="0 0 512 512" width="512" xmlns="http://www.w3.org/2000/svg" data-name="Layer 1"><path d="m383.68 359.76-.01-.06s.28-10.37-7.35-25.63c-6.2-12.41-8.77-16.63-6.48-29.55q4.77-1.845 9.69-4a40.751 40.751 0 0 0 10.28 9.4c32.24 20.47 43.72 60.69 43.72 60.69a29.507 29.507 0 0 0 -4.48.73c-11.59 2.94-17.1 11.09-19.73 18.33-14.61-.41-50.24-.85-50.24-.85a19.779 19.779 0 0 1 12.19-26.18 68.972 68.972 0 0 1 12.41-2.88z" fill="#8e6d5c"/><path d="m178.22 298.24c27.93 37.55 38.29 57.89 19.53 72.32-5.27 4.04-17.31 8.01-22.37 10.53-8.82 4.39-17.12 9.78-19.49 19.26-40.76 1.13-47.77.6-47.77.6l-.01-.11c-.53-9.47 9.97-22.34 23.88-23.87 13.72-1.52 17.41-7.92 19.05-18.21 2.01-12.62 8.49-30.94-18.84-70.72 26.33 16.53 46.02 10.2 46.02 10.2z" fill="#8e6d5c"/><path d="m433.53 370.61s-11.48-40.22-43.72-60.69a40.751 40.751 0 0 1 -10.28-9.4q-4.92 2.16-9.69 4c-71.11 27.5-115.95 4.24-115.95 4.24h-.03c-6.23 45.73-1.54 47.59.49 66.69.87 8.2 1.95 12.03 2.46 18.13a8.538 8.538 0 0 1 -8.62 9.42h-92.72a10.089 10.089 0 0 1 .32-2.25c.03-.14.06-.27.1-.4 2.37-9.48 10.67-14.87 19.49-19.26 5.06-2.52 17.1-6.49 22.37-10.53 18.76-14.43 8.4-34.77-19.53-72.32 0 0-19.69 6.33-46.02-10.2-.39-.24-.77-.49-1.16-.74-17.85-11.59-37.22-12.09-38.23-12.11a70.909 70.909 0 0 1 -16.24 1.52c-9.93-.13-16.96 4.88-21.36 9.61a19.155 19.155 0 0 1 -21.89 4.63c-8.27-3.75-14.39-9.97-18.71-15.97a19.2 19.2 0 0 1 2.32-25.09c8.21-7.81 4.52-11.11 6.29-31.46 1.88-21.58 37.58-38.2 50.53-43.54a11.871 11.871 0 0 0 6.31-6.08c3.11-6.87 10.74-19.01 23.75-12.42 0 0 58.79-44.35 95.59-46.63s50.06 17.44 100.51 7.59 118.73-24.27 156.28 45.49 17.44 87.19 22.38 123.58c4.57 33.78 28.68 82.71 20.89 104.22-1.03 2.85-3.71 11.81-6.75 11.96h-85.76a39.893 39.893 0 0 1 2.37-12.93c2.63-7.24 8.14-15.39 19.73-18.33a29.507 29.507 0 0 1 4.48-.73z" fill="#b58971"/><g fill="#cea28e"><path d="m199.4 109.76c-36.8 2.28-95.59 46.63-95.59 46.63-13.01-6.59-20.64 5.55-23.75 12.42a11.871 11.871 0 0 1 -6.31 6.08c-12.95 5.34-48.65 21.96-50.53 43.54-1.77 20.35 1.92 23.65-6.29 31.46a19.2 19.2 0 0 0 -2.32 25.09c4.32 6 10.44 12.22 18.71 15.97a19.155 19.155 0 0 0 21.89-4.63c.047-.05.1-.1.146-.151a52.558 52.558 0 0 1 -10.746-11.189 19.2 19.2 0 0 1 2.32-25.09c8.21-7.81 4.52-11.11 6.29-31.46 1.88-21.58 37.58-38.2 50.53-43.54l30.06-18.5s50.467-38.068 87.153-45.475a93.044 93.044 0 0 0 -21.563-1.155z"/><path d="m231.377 333.337c-9.207-18.138-26.235-30.855-46.057-35.422a75.283 75.283 0 0 1 -23.12-9.875c-.39-.24-.77-.49-1.16-.74-17.85-11.59-37.22-12.09-38.23-12.11a70.909 70.909 0 0 1 -16.24 1.52c-.589-.008-1.167 0-1.736.033a77.628 77.628 0 0 1 26.206 10.557c.39.25.77.5 1.16.74 26.33 16.53 46.02 10.2 46.02 10.2 27.93 37.55 38.29 57.89 19.53 72.32-5.27 4.04-17.31 8.01-22.37 10.53-8.82 4.39-17.12 9.78-19.49 19.26-.04.13-.07.26-.1.4a10.089 10.089 0 0 0 -.32 2.25h30a10.089 10.089 0 0 1 .32-2.25c.03-.14.06-.27.1-.4 2.37-9.48 10.67-14.87 19.49-19.26 5.06-2.52 17.1-6.49 22.37-10.53 11.84-9.107 12.081-20.567 3.627-37.223z"/></g></svg>